<?xml version="1.0" encoding="utf-8"?>
<!-- Generator: Adobe Illustrator 21.0.0, SVG Export Plug-In . SVG Version: 6.00 Build 0)  -->
<svg id="Layer_1" xmlns="http://www.w3.org/2000/svg" x="0px" y="0px"
	 viewBox="0 0 60 60" xml:space="preserve">
<style type="text/css">
	.st0{fill: #2bb405;}
</style>
<g>
	<path class="st0" d="M34.8,44.1c2.4-0.2,4.7-0.6,6.7-1.1l-1.6-4.5c-1.6,0.3-3.3,0.6-5.1,0.7C34.8,39.2,34.8,44.1,34.8,44.1z"/>
	<path class="st0" d="M25.3,44.1v-4.9c-1.8-0.2-3.5-0.4-5.1-0.7L18.5,43C20.6,43.6,22.8,43.9,25.3,44.1z"/>
	<path class="st0" d="M41,38.7l1.6,4.5c0,0.1,0,0.3,0,0.4c-0.1,0.1-0.2,0.2-0.3,0.3c-2.4,0.7-5.1,1.1-8,1.3
		c-1.4,0.1-2.9,0.2-4.3,0.2s-2.9-0.1-4.3-0.2c-2.9-0.2-5.6-0.7-8-1.3c-0.1,0-0.2-0.1-0.3-0.3c-0.1-0.1-0.1-0.3,0-0.4l1.6-4.5
		c-5.2,1.1-8.5,2.8-8.5,4.6C10.5,46,18.3,49,30,49s19.5-2.9,19.5-5.7C49.5,41.6,46.2,39.8,41,38.7z"/>
	<path class="st0" d="M30,41.4c1.3,0,2.5,0,3.8-0.1v-1.9c-1.3,0.1-2.5,0.1-3.8,0.1c-1.2,0-2.5,0-3.8-0.1v4.9c2.5,0.2,5,0.2,7.5,0V42
		c-1.2,0.1-2.5,0.1-3.8,0.1c-0.2,0-0.4-0.2-0.4-0.4S29.8,41.4,30,41.4z"/>
	<path class="st0" d="M20.5,37.6c1.7,0.3,3.4,0.6,5.3,0.7c2.9,0.2,5.6,0.2,8.4,0c1.8-0.1,3.6-0.4,5.3-0.7L30,11L20.5,37.6z
		 M27.3,24.4l-2.6,7.8c-0.1,0.2-0.2,0.3-0.4,0.3h-0.1C24.1,32.4,24,32.2,24,32l2.6-7.8c0.1-0.2,0.3-0.3,0.5-0.2
		C27.3,24,27.4,24.2,27.3,24.4z M28.7,20.4l-0.7,2c-0.1,0.2-0.2,0.3-0.4,0.3h-0.1c-0.2-0.1-0.3-0.3-0.2-0.5l0.7-2
		c0.1-0.2,0.3-0.3,0.5-0.2C28.6,20,28.7,20.2,28.7,20.4z"/>
</g>
</svg>
